<?xml version="1.0" standalone="no"?><!DOCTYPE svg PUBLIC "-//W3C//DTD SVG 1.1//EN" "http://www.w3.org/Graphics/SVG/1.1/DTD/svg11.dtd"><svg t="1743664703708" class="icon" viewBox="0 0 1024 1024" version="1.1" xmlns="http://www.w3.org/2000/svg" p-id="5567" xmlns:xlink="http://www.w3.org/1999/xlink" width="200" height="200"><path d="M950.857155 768l0 73.142857q0 14.848-10.825143 25.746286t-25.746286 10.825143l-804.571429 0q-14.848 0-25.746286-10.825143t-10.825143-25.746286l0-73.142857q0-14.848 10.825143-25.746286t25.746286-10.825143l804.571429 0q14.848 0 25.746286 10.825143t10.825143 25.746286zM950.857155 475.428571l0 73.142857q0 14.848-10.825143 25.746286t-25.746286 10.825143l-804.571429 0q-14.848 0-25.746286-10.825143t-10.825143-25.746286l0-73.142857q0-14.848 10.825143-25.746286t25.746286-10.825143l804.571429 0q14.848 0 25.746286 10.825143t10.825143 25.746286zM950.857155 182.857143l0 73.142857q0 14.848-10.825143 25.746286t-25.746286 10.825143l-804.571429 0q-14.848 0-25.746286-10.825143t-10.825143-25.746286l0-73.142857q0-14.848 10.825143-25.746286t25.746286-10.825143l804.571429 0q14.848 0 25.746286 10.825143t10.825143 25.746286z" fill="#444444" p-id="5568"></path></svg>